<svg width="1024" height="1024" viewBox="0 0 1024 1024" fill="none" xmlns="http://www.w3.org/2000/svg">
<path d="M854.6 288.6L639.4 73.4C633.4 67.4 625.3 64 616.8 64H192C174.3 64 160 78.3 160 96V928C160 945.7 174.3 960 192 960H832C849.7 960 864 945.7 864 928V311.3C864 302.8 860.6 294.6 854.6 288.6ZM790.2 326H602V137.8L790.2 326ZM792 888H232V136H534V352C534 363.139 538.425 373.822 546.302 381.698C554.178 389.575 564.861 394 576 394H792V888ZM544 472C544 467.6 540.4 464 536 464H488C483.6 464 480 467.6 480 472V580H372C367.6 580 364 583.6 364 588V636C364 640.4 367.6 644 372 644H480V752C480 756.4 483.6 760 488 760H536C540.4 760 544 756.4 544 752V644H652C656.4 644 660 640.4 660 636V588C660 583.6 656.4 580 652 580H544V472Z" fill="black"/>
</svg>
