<svg width="52" height="52" viewBox="0 0 52 52" fill="none" xmlns="http://www.w3.org/2000/svg">
<rect width="52" height="52" fill="#EEEEEE"/>
<path d="M8.58333 52C8.58333 52 5 52 5 48.4167C5 44.8333 8.58333 34.0833 26.5 34.0833C44.4167 34.0833 48 44.8333 48 48.4167C48 52 44.4167 52 44.4167 52H8.58333ZM26.5 30.5C29.3511 30.5 32.0854 29.3674 34.1014 27.3514C36.1174 25.3354 37.25 22.6011 37.25 19.75C37.25 16.8989 36.1174 14.1646 34.1014 12.1486C32.0854 10.1326 29.3511 9 26.5 9C23.6489 9 20.9146 10.1326 18.8986 12.1486C16.8826 14.1646 15.75 16.8989 15.75 19.75C15.75 22.6011 16.8826 25.3354 18.8986 27.3514C20.9146 29.3674 23.6489 30.5 26.5 30.5V30.5Z" fill="#BCBCBC"/>
</svg>
