<svg width="14" height="14" viewBox="0 0 14 14" fill="none" xmlns="http://www.w3.org/2000/svg">
<path d="M4.06 1.26H3.92C3.997 1.26 4.06 1.197 4.06 1.12V1.26H9.38V1.12C9.38 1.197 9.443 1.26 9.52 1.26H9.38V2.52H10.64V1.12C10.64 0.50225 10.1377 0 9.52 0H3.92C3.30225 0 2.8 0.50225 2.8 1.12V2.52H4.06V1.26ZM12.88 2.52H0.56C0.25025 2.52 0 2.77025 0 3.08V3.64C0 3.717 0.063 3.78 0.14 3.78H1.197L1.62925 12.9325C1.65725 13.5293 2.15075 14 2.7475 14H10.6925C11.291 14 11.7828 13.531 11.8108 12.9325L12.243 3.78H13.3C13.377 3.78 13.44 3.717 13.44 3.64V3.08C13.44 2.77025 13.1897 2.52 12.88 2.52ZM10.5577 12.74H2.88225L2.45875 3.78H10.9812L10.5577 12.74Z" fill="#BDA249"/>
</svg>
