<svg width="32" height="32" viewBox="0 0 32 32" fill="none" xmlns="http://www.w3.org/2000/svg"><path d="M8.05733 13.9447C7.87086 13.7582 7.74387 13.5206 7.69241 13.262C7.64096 13.0034 7.66735 12.7353 7.76825 12.4917C7.86915 12.248 8.04003 12.0398 8.25928 11.8933C8.47853 11.7467 8.7363 11.6685 9 11.6685H14.6667V1.33333C14.6667 0.979711 14.8071 0.640573 15.0572 0.390525C15.3072 0.140476 15.6464 0 16 0C16.3536 0 16.6928 0.140476 16.9428 0.390525C17.1929 0.640573 17.3333 0.979711 17.3333 1.33333V11.6683H23C23.2637 11.6683 23.5216 11.7465 23.7408 11.8931C23.9601 12.0396 24.131 12.2479 24.2319 12.4915C24.3328 12.7352 24.3592 13.0033 24.3077 13.262C24.2562 13.5206 24.1292 13.7582 23.9427 13.9447L16.9427 20.943C16.6926 21.193 16.3536 21.3334 16 21.3334C15.6464 21.3334 15.3074 21.193 15.0573 20.943L8.05733 13.9447ZM30.6667 18.6667C30.313 18.6667 29.9739 18.8071 29.7239 19.0572C29.4738 19.3072 29.3333 19.6464 29.3333 20V29.3333H2.66667V20C2.66667 19.6464 2.52619 19.3072 2.27614 19.0572C2.02609 18.8071 1.68696 18.6667 1.33333 18.6667C0.979711 18.6667 0.640573 18.8071 0.390525 19.0572C0.140476 19.3072 0 19.6464 0 20V29.3333C0.000794036 30.0403 0.282001 30.7181 0.781926 31.2181C1.28185 31.718 1.95967 31.9992 2.66667 32H29.3333C30.0403 31.9992 30.7181 31.718 31.2181 31.2181C31.718 30.7181 31.9992 30.0403 32 29.3333V20C32 19.6464 31.8595 19.3072 31.6095 19.0572C31.3594 18.8071 31.0203 18.6667 30.6667 18.6667Z" fill="white"/></svg>