<svg width="34" height="34" viewBox="0 0 34 34" fill="none" xmlns="http://www.w3.org/2000/svg"><path d="M24.4807 5.53243L28.4676 9.51741L24.4807 5.53243ZM27.0445 2.0218L16.2642 12.8021C15.7071 13.3584 15.3273 14.0671 15.1724 14.8389L14.1766 19.8234L19.1611 18.8257C19.9329 18.6714 20.6407 18.293 21.1979 17.7358L31.9782 6.9555C32.3022 6.63155 32.5591 6.24696 32.7344 5.8237C32.9098 5.40044 33 4.94679 33 4.48865C33 4.03051 32.9098 3.57686 32.7344 3.1536C32.5591 2.73034 32.3022 2.34575 31.9782 2.0218C31.6542 1.69785 31.2697 1.44088 30.8464 1.26556C30.4231 1.09024 29.9695 1 29.5113 1C29.0532 1 28.5996 1.09024 28.1763 1.26556C27.753 1.44088 27.3685 1.69785 27.0445 2.0218V2.0218Z" stroke="white" stroke-width="2" stroke-linecap="round" stroke-linejoin="round"/><path d="M29.2356 23.5881V29.2353C29.2356 30.2337 28.8389 31.1913 28.1329 31.8973C27.4269 32.6034 26.4693 33 25.4708 33H4.76474C3.76627 33 2.80869 32.6034 2.10267 31.8973C1.39664 31.1913 1 30.2337 1 29.2353V8.52916C1 7.53069 1.39664 6.57311 2.10267 5.86709C2.80869 5.16106 3.76627 4.76442 4.76474 4.76442H10.4119" stroke="white" stroke-width="2" stroke-linecap="round" stroke-linejoin="round"/></svg>
