<svg width="30" height="28" viewBox="0 0 30 28" fill="none" xmlns="http://www.w3.org/2000/svg">
<path fill-rule="evenodd" clip-rule="evenodd" d="M17.6842 5.89474V2.94737H11.7895V5.89474H17.6842ZM2.94737 8.8421V25.0526H26.5263V8.8421H2.94737ZM26.5263 5.89474C28.1621 5.89474 29.4737 7.20632 29.4737 8.8421V25.0526C29.4737 26.6884 28.1621 28 26.5263 28H2.94737C1.31158 28 0 26.6884 0 25.0526L0.0147368 8.8421C0.0147368 7.20632 1.31158 5.89474 2.94737 5.89474H8.8421V2.94737C8.8421 1.31158 10.1537 0 11.7895 0H17.6842C19.32 0 20.6316 1.31158 20.6316 2.94737V5.89474H26.5263Z" fill="white"/>
</svg>
