<svg width="74" height="49" viewBox="0 0 74 49" fill="none" xmlns="http://www.w3.org/2000/svg">
<path fill-rule="evenodd" clip-rule="evenodd" d="M36 0H0V48.2927H36V10.5366L23.7073 1.1165e-05L36 0Z" fill="#BDA249"/>
<path d="M23.7073 10.5366L36 10.5366L23.7073 4.76837e-06V10.5366Z" fill="black" fill-opacity="0.6"/>
<path d="M8.62 29.8C8.62 28.9333 8.77333 28.08 9.08 27.24C9.4 26.4 9.86 25.64 10.46 24.96C11.06 24.28 11.7933 23.74 12.66 23.34C13.5267 22.9267 14.5133 22.72 15.62 22.72C16.9133 22.72 18.04 23.0067 19 23.58C19.96 24.1533 20.6733 24.9 21.14 25.82L19.02 27.28C18.78 26.7467 18.4667 26.3267 18.08 26.02C17.6933 25.7133 17.2733 25.4933 16.82 25.36C16.38 25.2267 15.9533 25.16 15.54 25.16C14.8467 25.16 14.24 25.3 13.72 25.58C13.2133 25.86 12.7867 26.2267 12.44 26.68C12.0933 27.1333 11.8333 27.64 11.66 28.2C11.5 28.76 11.42 29.32 11.42 29.88C11.42 30.72 11.5933 31.5067 11.94 32.24C12.2867 32.96 12.7733 33.5467 13.4 34C14.0267 34.4533 14.7533 34.68 15.58 34.68C16.0067 34.68 16.4467 34.6067 16.9 34.46C17.3667 34.3133 17.7933 34.08 18.18 33.76C18.5667 33.44 18.8667 33.0267 19.08 32.52L21.34 33.82C21.0467 34.5267 20.5867 35.1267 19.96 35.62C19.3333 36.1 18.6267 36.4733 17.84 36.74C17.0533 36.9933 16.2733 37.12 15.5 37.12C14.4867 37.12 13.56 36.9133 12.72 36.5C11.8933 36.0733 11.1733 35.5133 10.56 34.82C9.94667 34.1133 9.46667 33.3267 9.12 32.46C8.78667 31.58 8.62 30.6933 8.62 29.8ZM25.5361 22.8L29.3761 33.72L33.1761 22.8H36.0761L30.6961 37H28.0361L22.6361 22.8H25.5361ZM53.8523 37H51.1723V31.12C51.1723 30.2933 51.0257 29.6867 50.7323 29.3C50.4523 28.9 50.059 28.7 49.5523 28.7C49.019 28.7 48.519 28.9067 48.0523 29.32C47.5857 29.72 47.2523 30.2467 47.0523 30.9V37H44.3723V31.12C44.3723 30.28 44.2257 29.6667 43.9323 29.28C43.6523 28.8933 43.259 28.7 42.7523 28.7C42.2323 28.7 41.7323 28.9 41.2523 29.3C40.7857 29.7 40.4523 30.2267 40.2523 30.88V37H37.5723V26.52H39.9923V28.46C40.379 27.78 40.9057 27.26 41.5723 26.9C42.2523 26.5267 43.0257 26.34 43.8923 26.34C44.759 26.34 45.4323 26.5533 45.9123 26.98C46.4057 27.4067 46.719 27.9333 46.8523 28.56C47.2657 27.84 47.8057 27.2933 48.4723 26.92C49.139 26.5333 49.8857 26.34 50.7123 26.34C51.3657 26.34 51.8923 26.46 52.2923 26.7C52.7057 26.9267 53.0257 27.24 53.2523 27.64C53.479 28.0267 53.6323 28.4667 53.7123 28.96C53.8057 29.4533 53.8523 29.9533 53.8523 30.46V37ZM62.1456 37.2C61.0123 37.2 60.0323 36.9533 59.2056 36.46C58.3923 35.9667 57.759 35.3133 57.3056 34.5C56.8523 33.6733 56.6256 32.78 56.6256 31.82C56.6256 30.8333 56.8456 29.9267 57.2856 29.1C57.739 28.26 58.379 27.5933 59.2056 27.1C60.0323 26.5933 61.019 26.34 62.1656 26.34C63.3123 26.34 64.2923 26.5933 65.1056 27.1C65.919 27.5933 66.539 28.2533 66.9656 29.08C67.4056 29.8933 67.6256 30.7733 67.6256 31.72C67.6256 32.0667 67.6056 32.3667 67.5656 32.62H59.4656C59.5323 33.4333 59.8323 34.0733 60.3656 34.54C60.9123 35.0067 61.539 35.24 62.2456 35.24C62.779 35.24 63.279 35.1133 63.7456 34.86C64.2256 34.5933 64.5523 34.2467 64.7256 33.82L67.0256 34.46C66.639 35.26 66.019 35.92 65.1656 36.44C64.3123 36.9467 63.3056 37.2 62.1456 37.2ZM59.4056 30.92H64.8856C64.8056 30.1333 64.5056 29.5 63.9856 29.02C63.479 28.5267 62.859 28.28 62.1256 28.28C61.4056 28.28 60.7856 28.5267 60.2656 29.02C59.759 29.5 59.4723 30.1333 59.4056 30.92ZM70.2983 37V34.12H72.4983V37H70.2983Z" fill="black"/>
</svg>
