<svg width="28" height="28" viewBox="0 0 28 28" fill="none" xmlns="http://www.w3.org/2000/svg">
<path d="M14.0001 6.00006C13.0112 6.00006 12.0445 6.29331 11.2222 6.84271C10.4 7.39212 9.7591 8.17301 9.38067 9.08664C9.00223 10.0003 8.90321 11.0056 9.09614 11.9755C9.28906 12.9454 9.76527 13.8363 10.4645 14.5356C11.1638 15.2349 12.0547 15.7111 13.0246 15.904C13.9945 16.0969 14.9999 15.9979 15.9135 15.6195C16.8271 15.241 17.608 14.6002 18.1574 13.7779C18.7068 12.9557 19.0001 11.989 19.0001 11.0001C19.0001 9.67398 18.4733 8.40221 17.5356 7.46453C16.5979 6.52685 15.3261 6.00006 14.0001 6.00006ZM14.0001 14.0001C13.4067 14.0001 12.8267 13.8241 12.3334 13.4945C11.84 13.1648 11.4555 12.6963 11.2284 12.1481C11.0014 11.5999 10.942 10.9967 11.0577 10.4148C11.1735 9.83285 11.4592 9.2983 11.8787 8.87874C12.2983 8.45918 12.8328 8.17346 13.4148 8.0577C13.9967 7.94195 14.5999 8.00136 15.1481 8.22842C15.6963 8.45548 16.1648 8.84 16.4945 9.33335C16.8241 9.8267 17.0001 10.4067 17.0001 11.0001C16.9993 11.7955 16.6829 12.5581 16.1205 13.1205C15.5581 13.6829 14.7955 13.9993 14.0001 14.0001Z" fill="white"/>
<path d="M14 0C11.2311 0 8.52431 0.821086 6.22202 2.35943C3.91973 3.89776 2.12532 6.08427 1.06569 8.64243C0.00606596 11.2006 -0.271181 14.0155 0.269012 16.7313C0.809205 19.447 2.14258 21.9416 4.10051 23.8995C6.05844 25.8574 8.55301 27.1908 11.2687 27.731C13.9845 28.2712 16.7994 27.9939 19.3576 26.9343C21.9157 25.8747 24.1022 24.0803 25.6406 21.778C27.1789 19.4757 28 16.7689 28 14C27.9958 10.2883 26.5194 6.72977 23.8948 4.10518C21.2702 1.48059 17.7117 0.00423472 14 0ZM8 24.377V23C8.0008 22.2046 8.31712 21.442 8.87956 20.8796C9.442 20.3171 10.2046 20.0008 11 20H17C17.7954 20.0008 18.558 20.3171 19.1204 20.8796C19.6829 21.442 19.9992 22.2046 20 23V24.377C18.1792 25.4402 16.1085 26.0005 14 26.0005C11.8915 26.0005 9.82084 25.4402 8 24.377ZM21.992 22.926C21.9721 21.6143 21.4377 20.363 20.5039 19.4416C19.5702 18.5202 18.3118 18.0025 17 18H11C9.68819 18.0025 8.42984 18.5202 7.49609 19.4416C6.56235 20.363 6.02794 21.6143 6.00801 22.926C4.19457 21.3067 2.91574 19.1749 2.34084 16.8127C1.76594 14.4505 1.92211 11.9693 2.78864 9.69786C3.65518 7.42637 5.19123 5.47167 7.19338 4.09257C9.19553 2.71347 11.5693 1.97503 14.0005 1.97503C16.4317 1.97503 18.8055 2.71347 20.8076 4.09257C22.8098 5.47167 24.3458 7.42637 25.2124 9.69786C26.0789 11.9693 26.2351 14.4505 25.6602 16.8127C25.0853 19.1749 23.8064 21.3067 21.993 22.926H21.992Z" fill="white"/>
</svg>
