<svg width="32" height="28" viewBox="0 0 32 28" fill="none" xmlns="http://www.w3.org/2000/svg">
<path d="M31.3478 23.4348H9.13043C8.96304 23.4348 8.82609 23.5717 8.82609 23.7391V25.8696C8.82609 26.037 8.96304 26.1739 9.13043 26.1739H31.3478C31.5152 26.1739 31.6522 26.037 31.6522 25.8696V23.7391C31.6522 23.5717 31.5152 23.4348 31.3478 23.4348ZM31.3478 1.82609H9.13043C8.96304 1.82609 8.82609 1.96304 8.82609 2.13043V4.26087C8.82609 4.42826 8.96304 4.56522 9.13043 4.56522H31.3478C31.5152 4.56522 31.6522 4.42826 31.6522 4.26087V2.13043C31.6522 1.96304 31.5152 1.82609 31.3478 1.82609ZM31.3478 12.6304H9.13043C8.96304 12.6304 8.82609 12.7674 8.82609 12.9348V15.0652C8.82609 15.2326 8.96304 15.3696 9.13043 15.3696H31.3478C31.5152 15.3696 31.6522 15.2326 31.6522 15.0652V12.9348C31.6522 12.7674 31.5152 12.6304 31.3478 12.6304ZM4.56522 21.6087H0.152174C0.0684783 21.6087 0 21.6772 0 21.7609V23.0543C0 23.138 0.0684783 23.2065 0.152174 23.2065H2.90652V23.9864H1.54837C1.46467 23.9864 1.3962 24.0549 1.3962 24.1386V25.4321C1.3962 25.5158 1.46467 25.5842 1.54837 25.5842H2.90652V26.4022H0.152174C0.0684783 26.4022 0 26.4707 0 26.5543V27.8478C0 27.9315 0.0684783 28 0.152174 28H4.56522C4.64891 28 4.71739 27.9315 4.71739 27.8478V21.7609C4.71739 21.6772 4.64891 21.6087 4.56522 21.6087ZM0.152174 1.67391H1.59783V6.23913C1.59783 6.32283 1.6663 6.3913 1.75 6.3913H3.27174C3.35543 6.3913 3.42391 6.32283 3.42391 6.23913V0.304348C3.42391 0.136957 3.28696 0 3.11957 0H0.152174C0.0684783 0 0 0.0684783 0 0.152174V1.52174C0 1.60543 0.0684783 1.67391 0.152174 1.67391ZM4.56522 10.8043H0.152174C0.0684783 10.8043 0 10.8728 0 10.9565V12.3261C0 12.4098 0.0684783 12.4783 0.152174 12.4783H2.75435L0.0798912 15.4342C0.0294482 15.4909 0.00108865 15.5638 0 15.6397V17.0435C0 17.1272 0.0684783 17.1957 0.152174 17.1957H4.56522C4.64891 17.1957 4.71739 17.1272 4.71739 17.0435V15.6739C4.71739 15.5902 4.64891 15.5217 4.56522 15.5217H1.96304L4.6375 12.5658C4.68794 12.5091 4.7163 12.4362 4.71739 12.3603V10.9565C4.71739 10.8728 4.64891 10.8043 4.56522 10.8043Z" fill="white"/>
</svg>
