<svg width="32" height="32" viewBox="0 0 32 32" fill="none" xmlns="http://www.w3.org/2000/svg"><path d="M29.3333 2.66667V8H2.66667V2.66667H29.3333ZM29.3333 0H2.66667C1.95942 0 1.28115 0.280951 0.781048 0.781048C0.280951 1.28115 0 1.95942 0 2.66667V8C0 8.70724 0.280951 9.38552 0.781048 9.88562C1.28115 10.3857 1.95942 10.6667 2.66667 10.6667H29.3333C30.0406 10.6667 30.7189 10.3857 31.219 9.88562C31.719 9.38552 32 8.70724 32 8V2.66667C32 1.95942 31.719 1.28115 31.219 0.781048C30.7189 0.280951 30.0406 0 29.3333 0Z" fill="white"/><path d="M8 16V29.3333H2.66667V16H8ZM8 13.3333H2.66667C1.95942 13.3333 1.28115 13.6143 0.781048 14.1144C0.280951 14.6145 0 15.2928 0 16V29.3333C0 30.0406 0.280951 30.7188 0.781048 31.2189C1.28115 31.719 1.95942 32 2.66667 32H8C8.70724 32 9.38552 31.719 9.88562 31.2189C10.3857 30.7188 10.6667 30.0406 10.6667 29.3333V16C10.6667 15.2928 10.3857 14.6145 9.88562 14.1144C9.38552 13.6143 8.70724 13.3333 8 13.3333Z" fill="white"/><path d="M29.3333 16V29.3333H16V16H29.3333ZM29.3333 13.3333H16C15.2927 13.3333 14.6145 13.6143 14.1144 14.1144C13.6143 14.6145 13.3333 15.2928 13.3333 16V29.3333C13.3333 30.0406 13.6143 30.7188 14.1144 31.2189C14.6145 31.719 15.2927 32 16 32H29.3333C30.0406 32 30.7188 31.719 31.2189 31.2189C31.719 30.7188 32 30.0406 32 29.3333V16C32 15.2928 31.719 14.6145 31.2189 14.1144C30.7188 13.6143 30.0406 13.3333 29.3333 13.3333Z" fill="white"/></svg>